# xmcd
#
# Track frame offsets:
#	150
#	3868
#	31088
#	51833
#	63671
#	90689
#	105613
#	129574
#	150401
#	172003
#	194045
#	220987
#	240370
#
# Disc length: 3489 seconds
#
# Revision: 0
# Processed by: cddbd v1.5.1PL0 Copyright (c) Steve Scherf et al.
# Submitted via: EasyCDDAExtractor 7.1.3.1
#
DISCID=aa0d9f0d
DTITLE=Harpdog Brown and the Bloodhounds - Live at The Vat-Once In A Howlin' M
DTITLE=oon
DYEAR=2001
DGENRE=Blues
TTITLE0=Intro
TTITLE1=Relaxin'
TTITLE2=Everything's Gonna Be Alright
TTITLE3=Soul Survivor
TTITLE4=9 Below Zero
TTITLE5=Flip Flop Bop
TTITLE6=Blue Light
TTITLE7=Pink Champagne
TTITLE8=Next Time You See Me
TTITLE9=How Come?
TTITLE10=Evenin'
TTITLE11=Baby What You Want Me To Do
TTITLE12=Farmer John
EXTD=
EXTT0=
EXTT1=
EXTT2=
EXTT3=
EXTT4=
EXTT5=
EXTT6=
EXTT7=
EXTT8=
EXTT9=
EXTT10=
EXTT11=
EXTT12=
PLAYORDER=
